<svg width="120" height="120" viewBox="0 0 120 120" fill="none" xmlns="http://www.w3.org/2000/svg">
<path d="M0 20C0 8.95431 8.95431 0 20 0H100C111.046 0 120 8.95431 120 20V100C120 111.046 111.046 120 100 120H20C8.95431 120 0 111.046 0 100V20Z" fill="#97C008"/>
<path fill-rule="evenodd" clip-rule="evenodd" d="M34.3829 63.9867L22.0174 59.8744C21.6537 65.2617 23.4138 70.0474 27.374 74.1911L34.3829 63.9867ZM84.5725 11.73C84.5725 11.73 94.6571 19.4922 93.7097 29.0726C93.1215 34.9896 87.6212 39.7259 71.1653 40.4307C41.5894 41.6968 25.0616 27.5507 25.0616 27.5507L12.6602 45.9841C12.6602 45.9841 26.018 56.7857 47.5522 60.1437C37.948 73.612 29.2868 87.0398 24.5947 100.27H54.175C59.2847 85.7154 68.6329 73.0822 76.9978 60.0045C93.2787 57.7015 100.463 52.3053 103.848 47.2502C118.001 26.0736 84.5725 11.73 84.5725 11.73V11.73Z" fill="white"/>
</svg>
