<svg xmlns="http://www.w3.org/2000/svg" xmlns:xlink="http://www.w3.org/1999/xlink" width="0" height="0"
     style="position:absolute">

    <symbol id="logo-ico" viewBox="0 0 204.199 35.343">
        <path d="M67.653,90.4H63.11v34.325H67.9V110.791h.662a7.924,7.924,0,0,0,6.243-2.218c1.377-1.592,1.789-3.345,1.789-7.924s-.411-6.189-1.789-7.978S71.857,90.4,67.653,90.4Zm.912,15.955H67.9V94.872h.662c2.844,0,3.4.93,3.4,5.724S71.41,106.355,68.566,106.355Z" transform="translate(-26.96 -89.899)"/>
        <path d="M80.18,94.872h4.472v29.854h4.794V94.872h4.686V90.4H80.18Z" transform="translate(-13.497 -89.899)"/>
        <path d="M104.122,106.659c2.379-1.485,3.094-3.291,3.094-7.62a8.514,8.514,0,0,0-2.111-6.582c-1.789-1.789-2.933-2.057-7.048-2.057H93.73v34.325h4.794c3.81,0,6.01-.715,7.513-2.468s1.789-3.488,1.789-7.62C107.843,109.7,106.913,107.75,104.122,106.659Zm-5.6-11.788h.662c2.683,0,3.345.93,3.345,4.579,0,4.329-.555,5.205-3.345,5.205h-.662Zm.465,25.382h-.465V109.128h.465c3.345,0,4.06,1.037,4.06,5.563s-.715,5.563-4.06,5.563Z" transform="translate(-2.81 -89.899)"/>
        <path d="M112.34,117.982c0,1.968-.555,2.79-2,2.79s-2-.823-2-2.79V90.4H103.54v25.632c0,4.06.161,4.937,1.091,6.439a7.28,7.28,0,0,0,11.43,0c.912-1.5,1.073-2.379,1.073-6.439V90.4H112.34Z" transform="translate(4.927 -89.899)"/>
        <path d="M112.61,94.872h4.472v29.854h4.794V94.872h4.686V90.4H112.61Z" transform="translate(12.081 -89.899)"/>
        <path d="M140.021,100.095H136.1V90.4H131.31v34.325H136.1V104.584h3.917v20.141H144.8V90.4h-4.776Z" transform="translate(26.829 -89.899)"/>
        <path d="M140.87,124.725h11.573v-4.472h-6.8V104.584h6.8v-4.49h-6.8V94.872h6.8V90.4H140.87Z" transform="translate(34.37 -89.899)"/>
        <path d="M160,107.572c1.95-2.522,2.54-4.2,2.54-8.478a9.677,9.677,0,0,0-1.789-6.582c-1.4-1.789-3.2-2.111-7.155-2.111H149v34.325h4.776v-16.1a10.265,10.265,0,0,0,1.7-.215l2.79,16.224h5.151Zm-2.594-4.99c-.465.876-1.342,1.234-2.88,1.234h-.68V94.872h.68c2.862.3,3.345.662,3.345,3.077C157.944,101.079,157.765,101.9,157.407,102.581Z" transform="translate(40.782 -89.899)"/>
        <path d="M72.4,124.725H83.991v-4.472h-6.8V104.584h6.8v-4.49h-6.8V94.872h6.8V90.4H72.4Z" transform="translate(-19.633 -89.899)"/>
        <path d="M135.484,105.449V99.225c0-6.117-2.272-9.1-6.94-9.1s-6.743,2.772-6.743,8.228v9.444h0v9.426c0,5.366,2.272,8.228,6.743,8.228s6.94-2.969,6.94-9.087v-6.225H130.69v6.171c0,3.577-.465,4.669-2.164,4.669s-1.968-.769-1.968-3.756v-9.426h0V98.348c0-2.987.429-3.756,1.968-3.756s2.164,1.037,2.164,4.686v6.171Z" transform="translate(19.329 -90.12)"/>
        <path d="M45.261,97.272H42.9V95h7.334v2.361H47.783v15.526H45.261Z" transform="translate(-42.9 -86.271)"/>
        <path d="M50.3,102.369v10.518H47.78V95H50.3v5.008h2.057V95h2.5v17.887h-2.5V102.369Z" transform="translate(-39.051 -86.271)"/>
        <path d="M58.9,95v2.361H55.322v2.647H58.9v2.361H55.322V110.6H58.9v2.29H52.8V95Z" transform="translate(-35.092 -86.271)"/>
    </symbol>
    <symbol id="search-ico" viewBox="0 0 21.78 22.67">
        <path d="M15.39,15.34A9,9,0,0,0,18,9V9h0A9,9,0,0,0,0,9H0V9A9,9,0,0,0,8.41,18c.2,0,.39,0,.59,0s.4,0,.6,0a9,9,0,0,0,4.64-1.66l6.49,6.36,1.05-1.08ZM9,16.5A7.5,7.5,0,1,1,16.5,9,7.5,7.5,0,0,1,9,16.5Z"/>
    </symbol>
    <symbol id="basket-ico" viewBox="0 0 34.028 31.937">
        <g transform="translate(-9.938 -9.287)">
            <g transform="translate(9.938 10.037)">
                <g>
                    <g>
                        <path d="M0,.375H6.446l6.4,24.793" transform="translate(0 -0.375)" fill="none" stroke="#fff" stroke-miterlimit="10" stroke-width="1.5"/>
                        <path d="M28.945,21.341H54.123L51.144,34.607h-18.8" transform="translate(-21.033 -15.609)" fill="none" stroke="#fff" stroke-miterlimit="10" stroke-width="1.5"/>
                    </g>
                </g>
                <line y2="13.266" transform="translate(14.254 5.731)" fill="none" stroke="#fff" stroke-miterlimit="10" stroke-width="1.5"/>
                <line y2="13.266" transform="translate(20.502 5.731)" fill="none" stroke="#fff" stroke-miterlimit="10" stroke-width="1.5"/>
                <line x1="1.771" y2="13.266" transform="translate(25.121 5.731)" fill="none" stroke="#fff" stroke-miterlimit="10" stroke-width="1.5"/>
                <line x2="13.158" transform="translate(12.849 24.793)" fill="none" stroke="#fff" stroke-miterlimit="10" stroke-width="1.5"/>
                <g transform="translate(11.377 24.793)">
                    <g>
                        <path d="M47.262,93.893a2.822,2.822,0,1,1-2.822-2.822A2.822,2.822,0,0,1,47.262,93.893Z" transform="translate(-41.619 -91.071)" fill="none" stroke="#fff" stroke-miterlimit="10" stroke-width="1.5"/>
                        <path d="M90.457,93.893a2.822,2.822,0,1,1-2.822-2.822A2.822,2.822,0,0,1,90.457,93.893Z" transform="translate(-73.006 -91.071)" fill="none" stroke="#fff" stroke-miterlimit="10" stroke-width="1.5"/>
                    </g>
                </g>
            </g>
        </g>
    </symbol>
    <symbol id="fresh-ico" viewBox="0 0 91.535 91.535">
        <g transform="translate(50.986 1.073) rotate(45)">
            <g>
                <path d="M47,37.736c-3.188,0-7.977,1.164-10.978,4.442a10.847,10.847,0,0,0-2.7,8.463,31.809,31.809,0,0,0-3.116,3.99c-.2-2.515-.532-5.32-1.046-8.42-.182-1.1-.331-2.2-.455-3.288C31,42.035,42.72,36.573,40.968,18.428,40.91,18.1,39.43,10.357,29.814.556L29.269,0l-.253.737c-.03.088-3.045,8.8-6.509,13.246a23.488,23.488,0,0,0-3.736,18.043,15.85,15.85,0,0,0,8.971,10.888c.127,1.146.282,2.3.473,3.454A90.994,90.994,0,0,1,29.476,59.3,27.609,27.609,0,0,0,26,54.391c-.073-.083-.154-.17-.23-.254a14.015,14.015,0,0,0-9.248-13.918,19.941,19.941,0,0,0-7.787-1.409A17.923,17.923,0,0,1,.779,37.09L0,36.708l.088.863c.046.448,1.212,11.047,8.824,16.151a15.967,15.967,0,0,0,9.093,2.624,26.273,26.273,0,0,0,7.374-1.158,23.79,23.79,0,0,1,4.11,6.357,39.55,39.55,0,0,1-.914,9.091l.925.263c.075-.263,1.419-5.181.816-14.792l.089.049a28.575,28.575,0,0,1,3.546-4.737,17.64,17.64,0,0,0,6.7,1.389A13.134,13.134,0,0,0,46.492,51.5c4.494-2.21,7.541-7.114,9.057-14.576l.186-.914-.852.379A21.269,21.269,0,0,1,47,37.736M19.708,31.8a22.745,22.745,0,0,1,3.558-17.23c3-3.851,5.585-10.558,6.4-12.791,8.906,9.31,10.343,16.739,10.351,16.775.765,7.928-1.059,14.516-5.275,19.053A17.814,17.814,0,0,1,28.6,41.933a89.765,89.765,0,0,1,1.845-27.381l-.933-.238a90.891,90.891,0,0,0-1.895,27.459A14.811,14.811,0,0,1,19.708,31.8M9.452,52.926c-6.022-4.035-7.836-11.985-8.281-14.6a19.2,19.2,0,0,0,7.57,1.444,18.929,18.929,0,0,1,7.414,1.337c7.7,3.134,8.628,9.467,8.674,12.031A38,38,0,0,0,8.343,43.571l-.276.922a36.49,36.49,0,0,1,16.593,9.9c-6.1,1.7-11.217,1.212-15.208-1.462m36.622-2.294c-4.654,2.294-9.694.7-11.417.03a29.867,29.867,0,0,1,9.672-6.8l-.378-.885a30.7,30.7,0,0,0-9.7,6.681,9.679,9.679,0,0,1,2.482-6.836C39.526,39.779,44.011,38.7,47,38.7a23.8,23.8,0,0,0,7.418-1.113c-1.5,6.67-4.309,11.057-8.348,13.047" stroke-width="1"/>
            </g>
        </g>
    </symbol>
    <symbol id="no-preserv-ico" viewBox="0 0 57.095 55.096">
        <g>
            <path
                    d="M3.692,0A3.938,3.938,0,0,0,.464,1.454C-.633,3.046.552,4.96.6,5.041A.61.61,0,0,0,1.635,4.39C1.627,4.378.83,3.071,1.469,2.147a2.745,2.745,0,0,1,2.164-.926A.61.61,0,1,0,3.692,0" transform="matrix(0.469, -0.883, 0.883, 0.469, 5.788, 16.976)" stroke-width="1"/>
            <path d="M42.3,31.3c-.442.094-.9.188-1.368.249-2.271.293-4.207-1.979-4.226-2l-.037-.039-3.957-3.957,3.957-3.957.037-.039c.019-.023,1.955-2.3,4.226-2,.469.061.926.156,1.368.248,2.009.42,4.086.854,7.022-2.084a6.413,6.413,0,0,0,1.238-7.009,6.736,6.736,0,0,0-6.137-4.036A6.736,6.736,0,0,0,40.39.532,6.413,6.413,0,0,0,33.381,1.77c-2.938,2.936-2.5,5.013-2.084,7.022.092.442.188.9.248,1.368.293,2.271-1.978,4.206-2,4.226l-.022.018L25.547,18.38,21.571,14.4l-.022-.018c-.022-.019-2.294-1.955-2-4.226.061-.468.157-.926.249-1.368.419-2.009.853-4.086-2.084-7.022A6.415,6.415,0,0,0,10.7.532,6.738,6.738,0,0,0,6.668,6.669a7.087,7.087,0,0,0-4.76,1.985A6.467,6.467,0,0,0,.531,10.705a6.418,6.418,0,0,0,1.238,7.009c2.938,2.938,5.015,2.5,7.022,2.084.443-.092.9-.187,1.369-.248,2.271-.293,4.207,1.979,4.226,2l.037.039,3.957,3.957-3.957,3.957-.037.039c-.019.023-1.955,2.3-4.226,2-.469-.061-.926-.156-1.369-.249-2.008-.419-4.085-.853-7.022,2.084a6.42,6.42,0,0,0-1.238,7.01,6.482,6.482,0,0,0,1.377,2.051,7.1,7.1,0,0,0,4.76,1.985A6.738,6.738,0,0,0,10.7,50.564a6.418,6.418,0,0,0,7.01-1.238c2.936-2.936,2.5-5.013,2.084-7.022-.092-.442-.188-.9-.249-1.369-.293-2.269,1.979-4.207,2-4.224l.022-.018,3.976-3.976,3.976,3.976.022.018c.023.018,2.294,1.955,2,4.224-.06.469-.156.926-.248,1.369-.42,2.008-.854,4.085,2.084,7.022a6.418,6.418,0,0,0,7.009,1.238,6.736,6.736,0,0,0,4.036-6.137,6.738,6.738,0,0,0,6.137-4.036,6.415,6.415,0,0,0-1.238-7.01c-2.936-2.936-5.013-2.5-7.022-2.084m-27-10.551c-.247-.289-2.467-2.772-5.3-2.408-.517.066-1,.167-1.463.264-1.921.4-3.439.719-5.909-1.752a5.183,5.183,0,0,1-.977-5.668,5.588,5.588,0,0,1,5.6-3.3l.634.012L7.88,7.259a5.591,5.591,0,0,1,3.3-5.6,5.187,5.187,0,0,1,5.668.977C19.322,5.1,19,6.621,18.6,8.543c-.1.465-.2.946-.264,1.461-.366,2.831,2.119,5.053,2.406,5.3l3.94,3.94-5.443,5.443Zm9.383,11.107-3.94,3.94c-.287.247-2.772,2.467-2.406,5.3.066.517.167,1,.264,1.463.4,1.922.718,3.439-1.753,5.911a5.187,5.187,0,0,1-5.668.977,5.593,5.593,0,0,1-3.3-5.6l.012-.634-.634.012a5.59,5.59,0,0,1-5.6-3.3,5.182,5.182,0,0,1,.977-5.668c2.47-2.47,3.988-2.154,5.909-1.753.465.1.946.2,1.463.264,2.831.366,5.051-2.119,5.3-2.406l3.94-3.94.862-.862,5.443-5.443.864-.862,3.938-3.94c.289-.247,2.772-2.469,2.408-5.3-.066-.515-.167-1-.264-1.461-.4-1.922-.719-3.441,1.752-5.911a5.189,5.189,0,0,1,5.669-.977,5.6,5.6,0,0,1,3.3,5.6l-.014.634.634-.012a5.592,5.592,0,0,1,5.6,3.3,5.185,5.185,0,0,1-.977,5.668c-2.47,2.47-3.988,2.153-5.911,1.752-.465-.1-.946-.2-1.461-.264-2.831-.365-5.053,2.12-5.3,2.408l-3.938,3.94-.864.862-5.443,5.443Zm24.756,8.059a5.592,5.592,0,0,1-5.6,3.3L43.2,43.2l.014.634a5.6,5.6,0,0,1-3.3,5.6,5.189,5.189,0,0,1-5.669-.977c-2.47-2.471-2.153-3.99-1.752-5.911.1-.465.2-.946.264-1.463.365-2.831-2.119-5.051-2.408-5.3l-3.938-3.938,5.443-5.443,3.938,3.938c.247.287,2.469,2.772,5.3,2.406.515-.066,1-.167,1.461-.264,1.922-.4,3.441-.719,5.911,1.753a5.185,5.185,0,0,1,.977,5.668" transform="translate(3 2)" stroke-width="1"/>
        </g>
    </symbol>
    <symbol id="ingrid-ico" viewBox="0 0 64.81 43.428">
        <g transform="translate(-5.5 -5.863)">
            <g transform="translate(6 6.379)">
                <path d="M61.583,22.962a10.2,10.2,0,0,0-1.409-5.237l-.214-.358A7.574,7.574,0,0,0,54.011,13.5a6.076,6.076,0,0,0-2.988-5.365l-.479-.253-.06-.117A7.126,7.126,0,0,0,44.8,3.723L43.635,2.635A6.565,6.565,0,0,0,38.945.8L35.63.9l-.7-.322A6.224,6.224,0,0,0,30.271.342L26.946,1.488H25.384a6.566,6.566,0,0,0-4.309,1.681l-.658.576-2.507.589A7.108,7.108,0,0,0,13.8,7.206l-.682.959a6.145,6.145,0,0,0-2.829,5.323h-.026a7.54,7.54,0,0,0-6.568,4.25,10.3,10.3,0,0,0-1.2,4.867V34.065H0v8.347H63.81V34.065H61.583ZM13.561,9.014l.085-.047.8-1.126a6.277,6.277,0,0,1,3.631-2.534l2.694-.633.811-.711a5.8,5.8,0,0,1,3.8-1.483h1.623l3.5-1.187a5.5,5.5,0,0,1,4.114.213l.859.4,3.487-.114a5.744,5.744,0,0,1,4.139,1.623L44.484,4.7l.137.007a6.267,6.267,0,0,1,5.14,3.577l.2.38.719.379a5.06,5.06,0,0,1,2.491,4.444H11.132a5.1,5.1,0,0,1,2.429-4.473M3.34,22.6a9.178,9.178,0,0,1,1.068-4.336,6.72,6.72,0,0,1,5.853-3.787H53.6a6.689,6.689,0,0,1,5.665,3.457l.214.359a9.086,9.086,0,0,1,1.256,4.667v11.1H3.34ZM62.964,41.419H.846V35.057H62.964Z" transform="translate(0 0)" stroke-width="1"/>
                <path d="M70.129,38.062a3.177,3.177,0,0,0-2.83-2.325,3.088,3.088,0,0,0-3.125,1.989c-.12.215-.244.438-.385.652a2.454,2.454,0,0,1-2.137.9H51.246a2.454,2.454,0,0,1-2.137-.9c-.14-.213-.264-.436-.384-.652A3.088,3.088,0,0,0,45.6,35.737a3.177,3.177,0,0,0-2.831,2.325,4.251,4.251,0,0,0-.231,1.381,4.433,4.433,0,0,0,.953,2.717,4.339,4.339,0,0,0-.721,4.1A3.177,3.177,0,0,0,45.6,48.584a3.088,3.088,0,0,0,3.125-1.989c.12-.215.244-.438.384-.652a2.454,2.454,0,0,1,2.137-.9H61.652a2.454,2.454,0,0,1,2.137.9c.14.213.264.436.385.652A3.088,3.088,0,0,0,67.3,48.584a3.177,3.177,0,0,0,2.83-2.325,4.339,4.339,0,0,0-.721-4.1,4.34,4.34,0,0,0,.721-4.1M69.58,46a2.572,2.572,0,0,1-2.281,1.89,2.524,2.524,0,0,1-2.63-1.675c-.126-.226-.257-.461-.411-.7a2.951,2.951,0,0,0-2.645-1.165H51.284a2.951,2.951,0,0,0-2.645,1.165c-.154.235-.285.469-.411.7a2.524,2.524,0,0,1-2.63,1.675A2.572,2.572,0,0,1,43.318,46a3.565,3.565,0,0,1,.79-3.588l.222-.25-.222-.251a3.565,3.565,0,0,1-.79-3.588,2.572,2.572,0,0,1,2.281-1.89,2.524,2.524,0,0,1,2.63,1.675c.126.226.257.461.411.7a2.95,2.95,0,0,0,2.645,1.165H61.613A2.95,2.95,0,0,0,64.258,38.8c.154-.235.285-.469.411-.7a2.524,2.524,0,0,1,2.63-1.675,2.572,2.572,0,0,1,2.281,1.89,3.564,3.564,0,0,1-.79,3.588l-.222.251.222.25A3.564,3.564,0,0,1,69.58,46" transform="translate(-24.544 -17.994)" stroke-width="1"/>
            </g>
        </g>
    </symbol>
    <symbol id="waste-ico" viewBox="0 0 51.548 50.784">
        <g transform="translate(0.597 0.511)">
            <g>
                <path d="M8.321,70.732l4.045-7.66,10.044.7v9.353H9.976ZM.985,60.111,7.52,49.547l-1.409-.73,8.126-.36L16.9,56.121,15.429,55.1l-3.667,7.352L7.793,69.967ZM2.994,48.129,6.35,49.87,0,60.136,9.544,73.952H23.235V63l-10.463-.731,2.97-5.952,2.767,1.923L14.814,47.606Z" transform="translate(0 -27.979)"  stroke-width="1"/>
                <path d="M61.283,64.287l5.372-6.078-.169,1.781,8.2-.411,8.5-.229L77.939,70.117l-12.411-.512.055,1.586ZM70.62,49.651l8.151-4.589L84.87,55.9,83.6,58.514l-8.659.233Zm-1.074-.342,4.5,9.476-6.644.332.318-3.354L60.258,64.2l6.255,10.044-.13-3.779,12.061.5L85.8,55.87,79.084,43.939Z" transform="translate(-35.414 -25.824)" stroke-width="1"/>
                <path d="M22.9,11.88,29.6,1.4l2.909-.1,4.274,7.535-6,8.083Zm17.3,4.519,1.652-.688L37.624,8.654,33.435,1.268,45.405.843l5.379,11.2,1.375-.794-4.075,7.04ZM45.915,0,29.135.6,21.758,12.131l9.222,5.9,6.253-8.421,3.415,5.709-3.111,1.295,10.952,2.619,5.928-10.24-3.276,1.89Z" transform="translate(-12.787)" stroke-width="1"/>
            </g>
        </g>
    </symbol>
    <symbol id="wave-left" viewBox="0 0 79.043 31.17">
        <g transform="translate(1.076 1.032)">
            <g>
                <path d="M65.041,12.628c-4.715-1.526-10.568-.486-12.887,4.352-2.269,4.735.737,9.241,5.259,11.005,8.335,3.251,18.506-2.8,19.459-11.7A15.385,15.385,0,0,0,72.61,4.222a14.935,14.935,0,0,0-13.284-4c-5.4.849-10.247,3.79-14.443,7.161a56.373,56.373,0,0,0-6.444,6.079c-1.94,2.14-3.729,4.415-5.763,6.469a24.4,24.4,0,0,1-31.23,2.764C.4,21.941-.6,23.675.436,24.421A26.453,26.453,0,0,0,25.17,27.312a28.5,28.5,0,0,0,10.836-8.025c3.522-3.965,6.906-7.907,11.137-11.157,3.926-3.015,8.618-5.642,13.636-6.089A12.562,12.562,0,0,1,72.408,7.088,12.973,12.973,0,0,1,74.39,18.437a12.682,12.682,0,0,1-8.669,7.916c-4.175,1.185-10.909.242-12.227-4.728a6.17,6.17,0,0,1,2.787-6.436,9.633,9.633,0,0,1,8.228-.632c1.228.4,1.753-1.534.532-1.929" fill="#d9a357" stroke="#d9a357" stroke-width="2"/>
            </g>
        </g>
    </symbol>
    <symbol id="wave-right" viewBox="0 0 79.043 31.17">
        <g transform="translate(1.018 1.033)">
            <g transform="translate(0 0)">
                <path d="M11.908,12.628c4.715-1.526,10.568-.486,12.887,4.352,2.269,4.735-.737,9.241-5.259,11.005C11.2,31.236,1.03,25.185.077,16.286A15.385,15.385,0,0,1,4.339,4.222a14.935,14.935,0,0,1,13.284-4c5.4.849,10.247,3.79,14.443,7.161a56.373,56.373,0,0,1,6.444,6.079c1.94,2.14,3.729,4.415,5.763,6.469A24.4,24.4,0,0,0,75.5,22.694c1.046-.753,2.046.981,1.01,1.727a26.453,26.453,0,0,1-24.734,2.891,28.5,28.5,0,0,1-10.836-8.025C37.421,15.322,34.037,11.38,29.806,8.13,25.88,5.115,21.188,2.488,16.17,2.041A12.562,12.562,0,0,0,4.541,7.088,12.973,12.973,0,0,0,2.559,18.437a12.682,12.682,0,0,0,8.669,7.916c4.175,1.185,10.909.242,12.227-4.728a6.17,6.17,0,0,0-2.787-6.436,9.633,9.633,0,0,0-8.228-.632c-1.228.4-1.753-1.534-.532-1.929" transform="translate(0 -0.001)" fill="#d9a357" stroke="#d9a357" stroke-width="2"/>
            </g>
        </g>
    </symbol>
    <symbol id="arrow-left" viewBox="0 0 54.737 24.927">
        <g transform="matrix(-0.999, 0.035, -0.035, -0.999, 54.737, 23.044)">
            <g transform="translate(0.001 0)" clip-path="url(#clip-path)">
                <path d="M1.655,0Q26.59,1.49,51.569,1.917c2.211.038,2.218,3.472,0,3.435Q26.6,4.924,1.655,3.438C-.544,3.308-.559-.129,1.655,0" transform="translate(0.001 9.239)"/>
                <path d="M20.7,3.174A166.111,166.111,0,0,1,2.1,10.892C0,11.617-.9,8.3,1.181,7.581A159.111,159.111,0,0,0,18.963.208a1.764,1.764,0,0,1,2.352.617A1.733,1.733,0,0,1,20.7,3.174" transform="translate(32.427 12.063)"/>
                <path d="M15.624,14.272A122.26,122.26,0,0,1,.5,2.919,1.735,1.735,0,0,1,.5.491a1.752,1.752,0,0,1,2.431,0A116.868,116.868,0,0,0,17.358,11.306c1.862,1.183.139,4.158-1.735,2.966" transform="translate(35.462 0)"/>
            </g>
        </g>
    </symbol>
    <symbol id="arrow-right" viewBox="0 0 54.737 24.932">
        <g transform="matrix(0.999, 0.035, -0.035, 0.999, 0.806, 0)">
            <g transform="translate(-0.001 0)" clip-path="url(#clip-path)">
                <path d="M1.655,5.349Q26.59,3.862,51.57,3.436C53.781,3.4,53.788-.037,51.57,0Q26.6.428,1.655,1.914c-2.2.131-2.214,3.568,0,3.435" transform="translate(0.001 8.47)"/>
                <path d="M20.7,7.822A166.1,166.1,0,0,0,2.1.1C0-.622-.9,2.695,1.181,3.414a159.1,159.1,0,0,1,17.782,7.374,1.763,1.763,0,0,0,2.352-.617,1.733,1.733,0,0,0-.617-2.35" transform="translate(32.427 0)"/>
                <path d="M15.624.277A122.263,122.263,0,0,0,.5,11.632a1.735,1.735,0,0,0,0,2.429,1.752,1.752,0,0,0,2.431,0A116.871,116.871,0,0,1,17.359,3.243C19.22,2.059,17.5-.915,15.624.277" transform="translate(35.462 8.511)"/>
            </g>
        </g>
    </symbol>
    <symbol id="tick-ico" viewBox="0 0 27.421 20.111">
        <g transform="translate(0 0)" clip-path="url(#clip-path)">
            <path d="M.611,15.111a36.141,36.141,0,0,0,4.064,4.4,2.221,2.221,0,0,0,3.044,0q9.642-7.782,19-15.908c2.1-1.82-.96-4.853-3.045-3.044q-9.355,8.124-19,15.908H7.719a36.256,36.256,0,0,1-4.064-4.4,2.163,2.163,0,0,0-3.044,0,2.206,2.206,0,0,0,0,3.044" transform="translate(0 0)" fill="#d9a357"/>
        </g>
    </symbol>
    <symbol id="rating-ico" viewBox="0 0 20.283 19.279">
        <g transform="translate(-3.797 -4.5)">
            <path d="M 18.6960563659668 21.70049667358398 L 17.43752288818359 16.28594207763672 L 21.63789558410645 12.64462852478027 L 16.10117340087891 12.16916179656982 L 13.93852996826172 7.063649654388428 L 11.7755126953125 12.16916179656982 L 6.239331245422363 12.64461612701416 L 10.43978309631348 16.28597068786621 L 9.180882453918457 21.70047950744629 L 13.93863296508789 18.83018112182617 L 18.6960563659668 21.70049667358398 M 20.20590209960938 23.77934074401855 L 13.93861293792725 19.99808120727539 L 7.670863151550293 23.77934074401855 L 9.329242706298828 16.64669227600098 L 3.796872854232788 11.85070133209229 L 11.08974266052246 11.2243709564209 L 13.93861293792725 4.500001430511475 L 16.78698348999023 11.2243709564209 L 24.08035278320312 11.85070133209229 L 18.54803276062012 16.64669227600098 L 20.20590209960938 23.77934074401855 Z"/>
        </g>
    </symbol>
    <symbol id="rating-active-ico" viewBox="0 0 20.283 19.279">
        <path d="M13.939,20l6.267,3.781-1.658-7.133,5.532-4.8-7.293-.626L13.939,4.5,11.09,11.224,3.8,11.851l5.532,4.8L7.671,23.779Z" transform="translate(-3.797 -4.5)"/>
    </symbol>
    <symbol id="occasion-left" viewBox="0 0 38.128 58.326">
        <g transform="translate(0)">
            <g transform="translate(0 0)" clip-path="url(#clip-path)">
                <path d="M20.38,22.911Q10.183,13.616.606,3.666c-1.9-1.979,1.11-5,3.018-3.018q9.57,9.944,19.774,19.244c2.036,1.855-.99,4.867-3.018,3.018" transform="translate(14.055 0.001)" fill="#d9a357"/>
                <path d="M30.9,21.5c-8.382-1.451-16.954-.907-25.345-2.361a2.151,2.151,0,0,1-1.492-2.625,2.183,2.183,0,0,1,2.625-1.49c8.384,1.451,16.956.905,25.347,2.359a2.153,2.153,0,0,1,1.49,2.628A2.183,2.183,0,0,1,30.9,21.5" transform="translate(-3.998 16.996)" fill="#d9a357"/>
                <path d="M23.372,27.9,8.129,31.358A2.182,2.182,0,0,1,5.5,29.866a2.158,2.158,0,0,1,1.49-2.625q7.623-1.729,15.242-3.462a2.182,2.182,0,0,1,2.625,1.492,2.156,2.156,0,0,1-1.49,2.625" transform="translate(1.597 26.91)" fill="#d9a357"/>
            </g>
        </g>
    </symbol>
    <symbol id="occasion-right" viewBox="0 0 38.128 58.326">
        <g transform="translate(0 0)" clip-path="url(#clip-path)">
            <path d="M3.693,22.91q10.2-9.294,19.774-19.244c1.9-1.979-1.11-5-3.018-3.018Q10.879,10.593.675,19.892c-2.036,1.855.99,4.867,3.018,3.018" transform="translate(-0.001 0.001)" fill="#d9a357"/>
            <path d="M6.69,21.5c8.382-1.451,16.954-.907,25.344-2.361a2.151,2.151,0,0,0,1.492-2.625,2.183,2.183,0,0,0-2.625-1.49c-8.384,1.451-16.956.905-25.347,2.359a2.153,2.153,0,0,0-1.49,2.628A2.183,2.183,0,0,0,6.69,21.5" transform="translate(4.535 16.996)" fill="#d9a357"/>
            <path d="M6.995,27.9l15.242,3.462a2.182,2.182,0,0,0,2.625-1.492,2.158,2.158,0,0,0-1.49-2.625Q15.749,25.512,8.13,23.779A2.182,2.182,0,0,0,5.5,25.271,2.156,2.156,0,0,0,6.995,27.9" transform="translate(6.164 26.91)" fill="#d9a357"/>
        </g>
    </symbol>
    <symbol id="footer-logo" viewBox="0 0 227.971 94.258">
        <g transform="translate(-39.09 -74.82)">
            <rect width="92.18" height="0.936" transform="translate(39.52 84.253)" fill="#fff"/>
            <rect width="92.18" height="0.936" transform="translate(174.487 84.253)" fill="#fff"/>
            <path d="M54.868,94.22c-1.872-2.377-3.987-3.07-9.639-3.07H39.09v46.511h6.495V118.795h.824c3.912,0,6.775-1.048,8.441-3.013s2.452-4.529,2.452-10.743C57.376,99.1,56.815,96.653,54.868,94.22Zm-8.46,18.567h-.9V97.214h.9c3.837,0,4.6,1.254,4.6,7.749S50.32,112.787,46.408,112.787Z" transform="translate(0 14.235)" fill="#fff"/>
            <path d="M61.21,91.15v6.064h6.064v40.447h6.495V97.214h6.345V91.15Z" transform="translate(19.282 14.235)" fill="#fff"/>
            <path d="M92.882,113.2c3.2-2.021,4.193-4.455,4.193-10.332,0-4.249-.842-6.907-2.864-8.928-2.3-2.3-3.987-2.789-9.564-2.789H78.77v46.511h6.495c5.166,0,8.179-.992,10.2-3.369s2.433-4.735,2.433-10.332C97.917,117.316,96.645,114.677,92.882,113.2ZM85.265,97.214h.917c3.631,0,4.529,1.254,4.529,6.214,0,5.858-.767,7.056-4.529,7.056h-.917Zm.636,34.42h-.636V116.549H85.9c4.529,0,5.615,1.4,5.615,7.487s-1.086,7.6-5.615,7.6Z" transform="translate(34.588 14.235)" fill="#fff"/>
            <path d="M103.431,91.15v37.434c0,2.658-.767,3.743-2.714,3.743s-2.733-1.1-2.733-3.743V91.15H91.49v34.757c0,5.615.225,6.7,1.479,8.722a9.826,9.826,0,0,0,15.5,0c1.254-2.021,1.46-3.2,1.46-8.722V91.15Z" transform="translate(45.676 14.235)" fill="#fff"/>
            <path d="M103.24,91.15v6.064h6.083v40.447h6.57V97.214h6.345V91.15Z" transform="translate(55.918 14.235)" fill="#fff"/>
            <path d="M139.247,91.15v13.1h-5.222V91.15H127.53v46.511h6.495V110.372h5.3v27.289h6.495V91.15Z" transform="translate(77.091 14.235)" fill="#fff"/>
            <path d="M155.592,97.214V91.15H139.87v46.511h15.722v-6.083h-9.227V110.372h9.227v-6.064h-9.227V97.214Z" transform="translate(87.848 14.235)" fill="#fff"/>
            <path d="M165.3,114.434c2.639-3.425,3.444-5.615,3.444-11.511,0-4.4-.674-6.757-2.34-8.928s-4.342-2.845-9.583-2.845H150.46v46.511h6.495V115.987a15.389,15.389,0,0,0,2.3-.281L163,137.717h6.981Zm-3.519-6.719c-.636,1.179-1.872,1.685-3.912,1.685h-.917V97.214h.917c3.874.412,4.529.9,4.529,4.155C162.4,105.637,162.27,106.741,161.784,107.714Z" transform="translate(97.079 14.235)" fill="#fff"/>
            <path d="M66.833,97.214V91.15H51.13v46.511h15.7v-6.083H57.625V110.372h9.209v-6.064H57.625V97.214Z" transform="translate(10.495 14.235)" fill="#fff"/>
            <path d="M127.2,117.919v8.366c0,4.96-.618,6.364-2.92,6.364s-2.658-1.048-2.658-5.091V114.738h0v-12.8c0-4.043.562-5.091,2.658-5.091s2.92,1.4,2.92,6.364v8.366h6.495v-8.441c0-8.31-3.07-12.353-9.358-12.353s-9.153,3.743-9.153,11.23v12.8h0v12.821c0,7.393,3.07,11.23,9.153,11.23s9.358-4.043,9.358-12.353v-8.441Z" transform="translate(66.326 13.912)" fill="#fff"/>
            <path d="M90.654,121.74H94.4v.917H91.664V124.4H94.1v.88H91.664v1.872H94.3v.917H90.56Z" transform="translate(44.865 40.899)" fill="#fff"/>
            <path d="M96.3,122.974v.917a2.358,2.358,0,0,0-1.385-.449c-.524,0-.824.206-.824.524s.356.468.936.636,1.535.449,1.535,1.4-.674,1.422-1.872,1.422a2.714,2.714,0,0,1-1.628-.487v-.992a2.283,2.283,0,0,0,1.591.636c.562,0,.88-.243.88-.58s-.393-.505-1.029-.711-1.441-.487-1.441-1.31.655-1.4,1.759-1.4a2.6,2.6,0,0,1,1.479.393Z" transform="translate(47.045 41.631)" fill="#fff"/>
            <path d="M96.886,123.146h1.273v.842H96.886v2.059a.861.861,0,0,0,.973.936h.412v.861a3.857,3.857,0,0,1-.618,0,1.61,1.61,0,0,1-1.759-1.759v-2.1H95.22v-.842h.693V122.06h.973Z" transform="translate(48.927 41.178)" fill="#fff"/>
            <path d="M97.22,125.1a.7.7,0,1,1,.618.6.6.6,0,0,1-.618-.6Z" transform="translate(50.671 43.283)" fill="#fff"/>
            <path d="M102.55,123.744a1.123,1.123,0,0,0-1.179-1.142,2.115,2.115,0,0,0-1.572.749v-1.067a2.639,2.639,0,0,1,1.722-.6,1.872,1.872,0,0,1,2.078,2c0,.973-.8,1.965-2.227,3.5h2.471v.936H99.48C102.325,124.98,102.55,124.437,102.55,123.744Z" transform="translate(52.641 40.841)" fill="#fff"/>
            <path d="M107.2,124.964c0,2.04-1.1,3.275-2.452,3.275S102.3,127,102.3,124.964s1.1-3.294,2.452-3.294S107.2,122.905,107.2,124.964Zm-3.874,0c0,1.479.636,2.34,1.422,2.34s1.46-.861,1.46-2.34-.674-2.358-1.46-2.358S103.329,123.467,103.329,124.964Z" transform="translate(55.099 40.838)" fill="#fff"/>
            <path d="M108.43,123.744a1.123,1.123,0,0,0-1.179-1.142,2.115,2.115,0,0,0-1.572.749v-1.067a2.639,2.639,0,0,1,1.722-.6,1.872,1.872,0,0,1,2.078,2c0,.973-.8,1.965-2.227,3.5h2.471v.936H105.36C108.055,124.98,108.43,124.437,108.43,123.744Z" transform="translate(57.766 40.841)" fill="#fff"/>
            <path d="M109.557,123.086l-1.5.636v-1.029l2.414-.973h0v6.345h-.992Z" transform="translate(60.12 40.882)" fill="#fff"/>
            <path d="M95.8,77.272H93.35V74.82h7.674v2.452H98.441V93.687H95.8Z" transform="translate(47.297)" fill="#fff"/>
            <path d="M100.85,82.644V93.687H98.23V74.82h2.62v5.334H103V74.82h2.639V93.687H103V82.644Z" transform="translate(51.551)" fill="#fff"/>
            <path d="M109.614,74.82v2.452H105.87v2.882h3.743v2.489H105.87v8.628h3.743v2.414H103.25V74.82Z" transform="translate(55.927)" fill="#fff"/>
        </g>
    </symbol>
    <symbol id="fb-ico" viewBox="0 0 37 37">
        <g transform="translate(-834 -6544)">
            <path d="M9.716,9.111l.45-2.931H7.353v-1.9A1.466,1.466,0,0,1,9.006,2.694h1.279V.2A15.593,15.593,0,0,0,8.015,0a3.579,3.579,0,0,0-3.83,3.946V6.18H1.609V9.111H4.184V16.2H7.353V9.111Z" transform="translate(846.391 6554)" fill="#fff"/>
        </g>
    </symbol>
    <symbol id="insta-ico" viewBox="0 0 37 37">
        <g transform="translate(-883 -6544)">
            <path d="M8.1,0C5.9,0,5.624.01,4.76.049A5.972,5.972,0,0,0,2.794.425a3.966,3.966,0,0,0-1.435.934A3.952,3.952,0,0,0,.425,2.794,5.954,5.954,0,0,0,.049,4.76C.008,5.624,0,5.9,0,8.1s.01,2.475.049,3.339A5.975,5.975,0,0,0,.425,13.4a3.972,3.972,0,0,0,.934,1.435,3.96,3.96,0,0,0,1.435.934,5.979,5.979,0,0,0,1.966.377c.864.04,1.139.049,3.339.049s2.475-.01,3.339-.049a5.993,5.993,0,0,0,1.966-.377A4.139,4.139,0,0,0,15.772,13.4a5.976,5.976,0,0,0,.377-1.966c.04-.864.049-1.139.049-3.339s-.01-2.475-.049-3.339a5.989,5.989,0,0,0-.377-1.966,3.975,3.975,0,0,0-.934-1.435A3.946,3.946,0,0,0,13.4.425,5.958,5.958,0,0,0,11.437.049C10.573.008,10.3,0,8.1,0Zm0,1.458c2.162,0,2.419.011,3.273.048a4.462,4.462,0,0,1,1.5.28,2.665,2.665,0,0,1,1.537,1.537,4.471,4.471,0,0,1,.279,1.5c.038.854.047,1.111.047,3.273s-.01,2.419-.05,3.273a4.558,4.558,0,0,1-.284,1.5,2.571,2.571,0,0,1-.607.933,2.527,2.527,0,0,1-.931.6,4.5,4.5,0,0,1-1.508.279c-.86.038-1.113.047-3.279.047s-2.42-.01-3.279-.05A4.592,4.592,0,0,1,3.29,14.4a2.508,2.508,0,0,1-.931-.607,2.459,2.459,0,0,1-.607-.931,4.6,4.6,0,0,1-.283-1.508c-.03-.85-.041-1.113-.041-3.269s.011-2.42.041-3.281A4.591,4.591,0,0,1,1.752,3.3a2.4,2.4,0,0,1,.607-.932,2.4,2.4,0,0,1,.931-.606,4.482,4.482,0,0,1,1.5-.284c.86-.03,1.114-.04,3.279-.04l.03.02Zm0,2.482A4.159,4.159,0,1,0,12.257,8.1,4.158,4.158,0,0,0,8.1,3.94Zm0,6.858a2.7,2.7,0,1,1,2.7-2.7A2.7,2.7,0,0,1,8.1,10.8Zm5.3-7.022a.972.972,0,1,1-.972-.971A.973.973,0,0,1,13.394,3.776Z" transform="translate(893 6554)" fill="#fff"/>
        </g>
    </symbol>


</svg>


