<svg id="Layer_1" data-name="Layer 1" xmlns="http://www.w3.org/2000/svg" viewBox="0 0 86.61 85.39"><defs><style>.cls-1{fill:#d9a357;}</style></defs><path class="cls-1" d="M14.46,18.92a2.88,2.88,0,0,0-3.9,1l-.06.12C7.36,27.34,3.94,34.62.33,41.68a2.82,2.82,0,0,0,.13,2.86A3.08,3.08,0,0,0,3,45.94h.14a2.58,2.58,0,0,0,2.18-1.48h0C9,37.35,12.39,30,15.5,22.8A2.93,2.93,0,0,0,14.46,18.92Z"/><path class="cls-1" d="M85,.3a2.62,2.62,0,0,0-2.68.15C58.76,15.35,35.29,31.11,12.59,47.32A2.89,2.89,0,0,0,11.37,50a3.07,3.07,0,0,0,1.7,2.48,2.49,2.49,0,0,0,1,.21,2.63,2.63,0,0,0,1.55-.52h0C38.29,36,61.73,20.22,85.28,5.34a2.76,2.76,0,0,0,1.33-2.48A3.06,3.06,0,0,0,85,.3Z"/><path class="cls-1" d="M26.32,62h0l23.17-4.12a2.86,2.86,0,0,0-1.43-5.53L25,56.42l-.1,0a2.85,2.85,0,0,0,.79,5.6A2.85,2.85,0,0,0,26.32,62Z"/><path class="cls-1" d="M54.46,79.8l-25.6-4a2.94,2.94,0,0,0-3.48,2,2.87,2.87,0,0,0,2,3.5l.12,0,25.48,4a2.63,2.63,0,0,0,.68.08,2.93,2.93,0,0,0,2.8-2.09A2.89,2.89,0,0,0,54.46,79.8Z"/></svg>